<?xml version="1.0"?>
<svg xmlns="http://www.w3.org/2000/svg" viewBox="-130 -130 260 260" width="256" height="256" color="#F4EFE6">
  <path d="M0,-100 L70.711,-70.711 L100,0 L70.711,70.711 L0,100 L-70.711,70.711 L-100,0 L-70.711,-70.711 Z" fill="none" stroke="currentColor" stroke-opacity="0.92" stroke-width="1.8" stroke-linejoin="miter"></path>
  <g stroke="currentColor" stroke-opacity="0.82" stroke-width="1.4" stroke-linecap="round">
    <line x1="0" y1="-100" x2="70.711" y2="70.711"></line>
    <line x1="70.711" y1="-70.711" x2="0" y2="100"></line>
    <line x1="100" y1="0" x2="-70.711" y2="70.711"></line>
    <line x1="70.711" y1="70.711" x2="-100" y2="0"></line>
    <line x1="0" y1="100" x2="-70.711" y2="-70.711"></line>
    <line x1="-70.711" y1="70.711" x2="0" y2="-100"></line>
    <line x1="-100" y1="0" x2="70.711" y2="-70.711"></line>
    <line x1="-70.711" y1="-70.711" x2="100" y2="0"></line>
  </g>
  <g stroke="currentColor" stroke-opacity="0.22" stroke-width="0.8">
    <line x1="0" y1="0" x2="0" y2="-100"></line>
    <line x1="0" y1="0" x2="70.711" y2="-70.711"></line>
    <line x1="0" y1="0" x2="100" y2="0"></line>
    <line x1="0" y1="0" x2="70.711" y2="70.711"></line>
    <line x1="0" y1="0" x2="0" y2="100"></line>
    <line x1="0" y1="0" x2="-70.711" y2="70.711"></line>
    <line x1="0" y1="0" x2="-100" y2="0"></line>
    <line x1="0" y1="0" x2="-70.711" y2="-70.711"></line>
  </g>
  <g fill="currentColor">
    <circle cx="0" cy="-100" r="3"></circle>
    <circle cx="70.711" cy="-70.711" r="3"></circle>
    <circle cx="100" cy="0" r="3"></circle>
    <circle cx="70.711" cy="70.711" r="3"></circle>
    <circle cx="0" cy="100" r="3"></circle>
    <circle cx="-70.711" cy="70.711" r="3"></circle>
    <circle cx="-100" cy="0" r="3"></circle>
    <circle cx="-70.711" cy="-70.711" r="3"></circle>
    <circle cx="15.851" cy="-38.268" r="1.8" opacity="0.85"></circle>
    <circle cx="38.268" cy="-15.851" r="1.8" opacity="0.85"></circle>
    <circle cx="38.268" cy="15.851" r="1.8" opacity="0.85"></circle>
    <circle cx="15.851" cy="38.268" r="1.8" opacity="0.85"></circle>
    <circle cx="-15.851" cy="38.268" r="1.8" opacity="0.85"></circle>
    <circle cx="-38.268" cy="15.851" r="1.8" opacity="0.85"></circle>
    <circle cx="-38.268" cy="-15.851" r="1.8" opacity="0.85"></circle>
    <circle cx="-15.851" cy="-38.268" r="1.8" opacity="0.85"></circle>
    <circle cx="0" cy="0" r="3.4"></circle>
  </g>
</svg>