<svg width="335" height="82" viewBox="0 0 335 82" fill="none" xmlns="http://www.w3.org/2000/svg">
<path d="M15.6777 50.0834V0.709397H26.8152V50.0834H15.6777ZM0 9.71874V0H42.4929V9.71874H0ZM38.7863 50.0834L58.6494 0H68.7228L88.3731 50.0834H76.5971L61.5579 8.51276H65.6015L50.3494 50.0834H38.7863ZM50.0657 41.0031V31.9229H77.3775V41.0031H50.0657ZM100.335 50.0834V0.709397H111.472V50.0834H100.335ZM84.6571 9.71874V0H127.15V9.71874H84.6571ZM123.443 50.0834L143.306 0H153.38L173.03 50.0834H161.254L146.215 8.51276H150.259L135.006 50.0834H123.443ZM134.723 41.0031V31.9229H162.035V41.0031H134.723ZM185.826 50.0834L169.723 0H180.79L192.566 38.5203H188.238L199.731 0H208.456L219.948 38.5203H215.692L227.397 0H238.393L222.289 50.0834H213.564L202.001 11.5632H206.115L194.552 50.0834H185.826ZM264.567 50.8638C260.453 50.8638 256.811 49.9888 253.642 48.239C250.521 46.4891 248.062 44.0772 246.265 41.0031C244.515 37.8818 243.64 34.3348 243.64 30.3622V0H254.848V31.0006C254.848 32.987 255.274 34.7132 256.125 36.1792C256.977 37.6453 258.135 38.7804 259.601 39.5843C261.115 40.341 262.77 40.7194 264.567 40.7194C266.459 40.7194 268.114 40.341 269.533 39.5843C270.952 38.7804 272.063 37.669 272.867 36.2502C273.718 34.7841 274.144 33.0579 274.144 31.0716V0H285.353V30.4331C285.353 34.4057 284.478 37.9291 282.728 41.0031C280.978 44.0772 278.542 46.4891 275.421 48.239C272.3 49.9888 268.682 50.8638 264.567 50.8638ZM302.743 29.44V21.211H313.313C315.536 21.211 317.239 20.6434 318.421 19.5084C319.651 18.3734 320.265 16.8364 320.265 14.8973C320.265 13.1002 319.674 11.6105 318.492 10.4281C317.31 9.24581 315.607 8.65464 313.384 8.65464H302.743V0H314.661C317.972 0 320.88 0.638458 323.387 1.91537C325.893 3.14499 327.856 4.87119 329.275 7.09397C330.694 9.31675 331.403 11.8706 331.403 14.7555C331.403 17.6876 330.694 20.2651 329.275 22.4879C327.856 24.6634 325.87 26.3659 323.316 27.5955C320.762 28.8252 317.759 29.44 314.306 29.44H302.743ZM294.231 50.0834V0H305.368V50.0834H294.231ZM321.471 50.0834L305.865 28.5178L316.08 25.7511L334.666 50.0834H321.471Z" fill="url(#paint0_linear_10554_11624)"/>
<path d="M28.9936 76V64.72H36.1136V65.824H30.2736V69.728H35.7776V70.832H30.2736V74.896H36.1136V76H28.9936ZM41.7323 76L36.8043 64.72H38.2123L42.6123 74.944H42.1003L46.4843 64.72H47.8603L42.9163 76H41.7323ZM53.7296 76.144C52.9509 76.144 52.2416 76.0107 51.6016 75.744C50.9616 75.4667 50.4176 75.0773 49.9696 74.576C49.5216 74.0747 49.1749 73.4667 48.9296 72.752C48.6949 72.0373 48.5776 71.2373 48.5776 70.352C48.5776 69.456 48.6949 68.656 48.9296 67.952C49.1749 67.2373 49.5216 66.6347 49.9696 66.144C50.4176 65.6427 50.9562 65.2587 51.5856 64.992C52.2256 64.7147 52.9402 64.576 53.7296 64.576C54.5296 64.576 55.2442 64.7093 55.8736 64.976C56.5136 65.2427 57.0576 65.6267 57.5056 66.128C57.9642 66.6293 58.3109 67.2373 58.5456 67.952C58.7909 68.656 58.9136 69.4507 58.9136 70.336C58.9136 71.232 58.7909 72.0373 58.5456 72.752C58.3002 73.4667 57.9536 74.0747 57.5056 74.576C57.0576 75.0773 56.5136 75.4667 55.8736 75.744C55.2442 76.0107 54.5296 76.144 53.7296 76.144ZM53.7296 74.976C54.5402 74.976 55.2229 74.7947 55.7776 74.432C56.3429 74.0693 56.7749 73.5413 57.0736 72.848C57.3722 72.1547 57.5216 71.3227 57.5216 70.352C57.5216 69.3707 57.3722 68.5387 57.0736 67.856C56.7749 67.1733 56.3429 66.6507 55.7776 66.288C55.2229 65.9253 54.5402 65.744 53.7296 65.744C52.9402 65.744 52.2629 65.9253 51.6976 66.288C51.1429 66.6507 50.7162 67.1787 50.4176 67.872C50.1189 68.5547 49.9696 69.3813 49.9696 70.352C49.9696 71.3227 50.1189 72.1547 50.4176 72.848C50.7162 73.5307 51.1429 74.0587 51.6976 74.432C52.2629 74.7947 52.9402 74.976 53.7296 74.976ZM61.2592 76V64.72H62.5712V74.848H68.3152V76H61.2592ZM71.9354 76L67.0074 64.72H68.4154L72.8154 74.944H72.3034L76.6874 64.72H78.0634L73.1194 76H71.9354ZM79.4467 76V64.72H80.7587V76H79.4467ZM83.5404 76V64.72H84.5644L91.7484 74.304H91.3644V64.72H92.5804V76H91.5884L84.4044 66.416H84.7724V76H83.5404ZM100.536 76.144C99.3309 76.144 98.3122 75.9147 97.4802 75.456C96.6589 74.9973 96.0349 74.336 95.6082 73.472C95.1815 72.608 94.9682 71.5733 94.9682 70.368C94.9682 69.1733 95.1815 68.144 95.6082 67.28C96.0349 66.416 96.6482 65.7493 97.4482 65.28C98.2482 64.8107 99.2135 64.576 100.344 64.576C100.878 64.576 101.379 64.6293 101.848 64.736C102.328 64.8427 102.771 65.0027 103.176 65.216C103.592 65.4187 103.955 65.6747 104.264 65.984L103.752 67.04C103.24 66.592 102.712 66.2667 102.168 66.064C101.624 65.8613 101.011 65.76 100.328 65.76C99.0375 65.76 98.0509 66.16 97.3682 66.96C96.6962 67.76 96.3602 68.896 96.3602 70.368C96.3602 71.8613 96.7069 73.0027 97.4002 73.792C98.1042 74.5813 99.1602 74.976 100.568 74.976C101.08 74.976 101.582 74.928 102.072 74.832C102.563 74.7253 103.027 74.5813 103.464 74.4L103.176 75.152V71.168H100.312V70.128H104.312V75.344C104.024 75.4933 103.667 75.632 103.24 75.76C102.814 75.8773 102.366 75.968 101.896 76.032C101.427 76.1067 100.974 76.144 100.536 76.144ZM113.871 76V65.856H109.775V64.72H119.295V65.856H115.199V76H113.871ZM120.728 76V64.72H122.04V69.712H128.808V64.72H130.12V76H128.808V70.848H122.04V76H120.728ZM132.9 76V64.72H140.02V65.824H134.18V69.728H139.684V70.832H134.18V74.896H140.02V76H132.9ZM146.337 76V64.72H150.849C152.001 64.72 152.897 64.976 153.537 65.488C154.177 66 154.497 66.7253 154.497 67.664C154.497 68.368 154.289 68.9547 153.873 69.424C153.468 69.8933 152.913 70.2027 152.209 70.352V70.128C152.743 70.192 153.201 70.3467 153.585 70.592C153.969 70.8267 154.263 71.1413 154.465 71.536C154.668 71.92 154.769 72.3733 154.769 72.896C154.769 73.568 154.62 74.1387 154.321 74.608C154.033 75.0667 153.612 75.4133 153.057 75.648C152.503 75.8827 151.831 76 151.041 76H146.337ZM147.617 74.944H150.913C151.255 74.944 151.559 74.9173 151.825 74.864C152.103 74.8107 152.343 74.7307 152.545 74.624C152.748 74.5067 152.919 74.368 153.057 74.208C153.196 74.048 153.297 73.856 153.361 73.632C153.436 73.408 153.473 73.1573 153.473 72.88C153.473 72.592 153.436 72.3413 153.361 72.128C153.297 71.904 153.196 71.712 153.057 71.552C152.919 71.3813 152.748 71.2427 152.545 71.136C152.343 71.0293 152.103 70.9493 151.825 70.896C151.559 70.8427 151.255 70.816 150.913 70.816H147.617V74.944ZM147.617 69.76H150.657C151.489 69.76 152.119 69.5893 152.545 69.248C152.983 68.9067 153.201 68.416 153.201 67.776C153.201 67.1147 152.983 66.6187 152.545 66.288C152.119 65.9467 151.489 65.776 150.657 65.776H147.617V69.76ZM161.598 76.144C160.126 76.144 159 75.7547 158.222 74.976C157.454 74.1867 157.07 73.04 157.07 71.536V64.72H158.382V71.472C158.382 72.6453 158.654 73.5253 159.198 74.112C159.742 74.688 160.542 74.976 161.598 74.976C162.654 74.976 163.448 74.688 163.982 74.112C164.515 73.5253 164.782 72.6453 164.782 71.472V64.72H166.094V71.536C166.094 73.04 165.71 74.1867 164.942 74.976C164.184 75.7547 163.07 76.144 161.598 76.144ZM168.79 76V64.72H170.102V76H168.79ZM172.884 76V64.72H174.196V74.848H179.94V76H172.884ZM182.308 76V65.856H178.212V64.72H187.732V65.856H183.636V76H182.308ZM193.275 76V64.72H200.395V65.824H194.555V69.728H200.059V70.832H194.555V74.896H200.395V76H193.275ZM202.603 76V64.72H203.627L210.811 74.304H210.427V64.72H211.643V76H210.651L203.467 66.416H203.835V76H202.603ZM217.967 76L213.039 64.72H214.447L218.847 74.944H218.335L222.719 64.72H224.095L219.151 76H217.967ZM225.478 76V64.72H226.79V76H225.478ZM229.572 76V64.72H234.036C235.241 64.72 236.169 65.0027 236.82 65.568C237.47 66.1333 237.796 66.9387 237.796 67.984C237.796 68.6453 237.646 69.2213 237.348 69.712C237.06 70.192 236.633 70.56 236.068 70.816C235.502 71.0613 234.825 71.184 234.036 71.184L234.196 70.976H234.516C234.932 70.976 235.294 71.0827 235.604 71.296C235.913 71.5093 236.196 71.8507 236.452 72.32L238.436 76H236.996L235.044 72.384C234.884 72.0853 234.702 71.8507 234.5 71.68C234.308 71.5093 234.084 71.392 233.828 71.328C233.582 71.264 233.284 71.232 232.932 71.232H230.884V76H229.572ZM230.884 70.192H233.844C234.718 70.192 235.38 70.0107 235.828 69.648C236.276 69.2747 236.5 68.72 236.5 67.984C236.5 67.2693 236.276 66.7307 235.828 66.368C235.38 65.9947 234.718 65.808 233.844 65.808H230.884V70.192ZM244.933 76.144C244.154 76.144 243.445 76.0107 242.805 75.744C242.165 75.4667 241.621 75.0773 241.173 74.576C240.725 74.0747 240.378 73.4667 240.133 72.752C239.898 72.0373 239.781 71.2373 239.781 70.352C239.781 69.456 239.898 68.656 240.133 67.952C240.378 67.2373 240.725 66.6347 241.173 66.144C241.621 65.6427 242.159 65.2587 242.789 64.992C243.429 64.7147 244.143 64.576 244.933 64.576C245.733 64.576 246.447 64.7093 247.077 64.976C247.717 65.2427 248.261 65.6267 248.709 66.128C249.167 66.6293 249.514 67.2373 249.749 67.952C249.994 68.656 250.117 69.4507 250.117 70.336C250.117 71.232 249.994 72.0373 249.749 72.752C249.503 73.4667 249.157 74.0747 248.709 74.576C248.261 75.0773 247.717 75.4667 247.077 75.744C246.447 76.0107 245.733 76.144 244.933 76.144ZM244.933 74.976C245.743 74.976 246.426 74.7947 246.981 74.432C247.546 74.0693 247.978 73.5413 248.277 72.848C248.575 72.1547 248.725 71.3227 248.725 70.352C248.725 69.3707 248.575 68.5387 248.277 67.856C247.978 67.1733 247.546 66.6507 246.981 66.288C246.426 65.9253 245.743 65.744 244.933 65.744C244.143 65.744 243.466 65.9253 242.901 66.288C242.346 66.6507 241.919 67.1787 241.621 67.872C241.322 68.5547 241.173 69.3813 241.173 70.352C241.173 71.3227 241.322 72.1547 241.621 72.848C241.919 73.5307 242.346 74.0587 242.901 74.432C243.466 74.7947 244.143 74.976 244.933 74.976ZM252.462 76V64.72H253.486L260.67 74.304H260.286V64.72H261.502V76H260.51L253.326 66.416H253.694V76H252.462ZM264.338 76V64.72H265.442L270.018 73.312H269.538L274.082 64.72H275.186V76H273.97V66.48H274.354L270.21 74.256H269.346L265.154 66.464H265.538V76H264.338ZM277.994 76V64.72H285.114V65.824H279.274V69.728H284.778V70.832H279.274V74.896H285.114V76H277.994ZM287.322 76V64.72H288.346L295.53 74.304H295.146V64.72H296.362V76H295.37L288.186 66.416H288.554V76H287.322ZM301.933 76V65.856H297.837V64.72H307.357V65.856H303.261V76H301.933Z" fill="#8E9DA4"/>
<defs>
<linearGradient id="paint0_linear_10554_11624" x1="-1.41879" y1="24.0722" x2="347.368" y2="24.0722" gradientUnits="userSpaceOnUse">
<stop stop-color="#008F7A"/>
<stop offset="0.355769" stop-color="#41906F"/>
<stop offset="0.735577" stop-color="#879262"/>
<stop offset="1" stop-color="#B8935A"/>
</linearGradient>
</defs>
</svg>
