<svg width="452" height="100" viewBox="0 0 452 100" fill="none" xmlns="http://www.w3.org/2000/svg">
<path d="M132.678 62.0834V12.7094H143.815V62.0834H132.678ZM117 21.7187V12H159.493V21.7187H117ZM155.786 62.0834L175.649 12H185.723L205.373 62.0834H193.597L178.558 20.5128H182.601L167.349 62.0834H155.786ZM167.066 53.0031V43.9229H194.377V53.0031H167.066ZM217.335 62.0834V12.7094H228.472V62.0834H217.335ZM201.657 21.7187V12H244.15V21.7187H201.657ZM240.443 62.0834L260.306 12H270.38L290.03 62.0834H278.254L263.215 20.5128H267.259L252.006 62.0834H240.443ZM251.723 53.0031V43.9229H279.035V53.0031H251.723ZM302.826 62.0834L286.723 12H297.79L309.566 50.5203H305.238L316.731 12H325.456L336.948 50.5203H332.692L344.397 12H355.393L339.289 62.0834H330.564L319.001 23.5632H323.115L311.552 62.0834H302.826ZM381.567 62.8638C377.453 62.8638 373.811 61.9888 370.642 60.239C367.521 58.4891 365.062 56.0772 363.265 53.0031C361.515 49.8818 360.64 46.3348 360.64 42.3622V12H371.848V43.0006C371.848 44.987 372.274 46.7132 373.125 48.1792C373.977 49.6453 375.135 50.7804 376.601 51.5843C378.115 52.341 379.77 52.7194 381.567 52.7194C383.459 52.7194 385.114 52.341 386.533 51.5843C387.952 50.7804 389.063 49.669 389.867 48.2502C390.718 46.7841 391.144 45.0579 391.144 43.0716V12H402.353V42.4331C402.353 46.4057 401.478 49.9291 399.728 53.0031C397.978 56.0772 395.542 58.4891 392.421 60.239C389.3 61.9888 385.682 62.8638 381.567 62.8638ZM419.743 41.44V33.211H430.313C432.536 33.211 434.239 32.6434 435.421 31.5084C436.651 30.3734 437.265 28.8364 437.265 26.8973C437.265 25.1002 436.674 23.6105 435.492 22.4281C434.31 21.2458 432.607 20.6546 430.384 20.6546H419.743V12H431.661C434.972 12 437.88 12.6385 440.387 13.9154C442.893 15.145 444.856 16.8712 446.275 19.094C447.694 21.3167 448.403 23.8706 448.403 26.7555C448.403 29.6876 447.694 32.2651 446.275 34.4879C444.856 36.6634 442.87 38.3659 440.316 39.5955C437.762 40.8252 434.759 41.44 431.306 41.44H419.743ZM411.231 62.0834V12H422.368V62.0834H411.231ZM438.471 62.0834L422.865 40.5178L433.08 37.7511L451.666 62.0834H438.471Z" fill="url(#paint0_linear_10433_25)"/>
<path d="M156.197 87.7402V72.5946H165.566V74.0875H158.015V79.3669H164.917V80.8381H158.015V86.2473H165.566V87.7402H156.197ZM172.997 87.7402L167.306 72.5946H169.275L174.058 85.8146L178.881 72.5946H180.807L175.117 87.7402H172.997ZM189.109 87.9999C187.651 87.9999 186.368 87.6753 185.257 87.0262C184.146 86.3627 183.274 85.4467 182.639 84.2784C182.018 83.0956 181.708 81.7252 181.708 80.1674C181.708 78.624 182.018 77.2681 182.639 76.0997C183.274 74.9169 184.146 73.9938 185.257 73.3302C186.368 72.6667 187.651 72.335 189.109 72.335C190.594 72.335 191.892 72.6667 193.003 73.3302C194.113 73.9938 194.972 74.9169 195.577 76.0997C196.198 77.2681 196.508 78.624 196.508 80.1674C196.508 81.7252 196.198 83.0956 195.577 84.2784C194.972 85.4467 194.113 86.3627 193.003 87.0262C191.892 87.6753 190.594 87.9999 189.109 87.9999ZM189.109 86.3987C190.219 86.3987 191.185 86.1535 192.008 85.6631C192.844 85.1583 193.493 84.4442 193.955 83.5211C194.416 82.5835 194.647 81.4656 194.647 80.1674C194.647 78.8692 194.416 77.7585 193.955 76.8354C193.493 75.8978 192.844 75.1838 192.008 74.6933C191.185 74.2029 190.219 73.9577 189.109 73.9577C188.011 73.9577 187.045 74.2029 186.208 74.6933C185.387 75.1838 184.737 75.8978 184.261 76.8354C183.8 77.7585 183.569 78.8692 183.569 80.1674C183.569 81.4656 183.8 82.5835 184.261 83.5211C184.737 84.4442 185.387 85.1583 186.208 85.6631C187.045 86.1535 188.011 86.3987 189.109 86.3987ZM199.154 87.7402V72.5946H200.971V86.2906H208.025V87.7402H199.154ZM212.509 87.7402L206.819 72.5946H208.787L213.57 85.8146L218.394 72.5946H220.32L214.629 87.7402H212.509ZM222.396 87.7402V72.5946H224.214V87.7402H222.396ZM227.447 87.7402V72.5946H229.264L237.335 84.7327V72.5946H239.152V87.7402H237.335L229.264 75.6021V87.7402H227.447ZM248.898 87.9999C247.484 87.9999 246.243 87.6753 245.176 87.0262C244.108 86.3627 243.279 85.4467 242.688 84.2784C242.096 83.11 241.8 81.7469 241.8 80.189C241.8 78.6456 242.096 77.2825 242.688 76.0997C243.293 74.9169 244.145 73.9938 245.241 73.3302C246.351 72.6667 247.656 72.335 249.157 72.335C250.859 72.335 252.28 72.7461 253.419 73.5682C254.559 74.376 255.287 75.5083 255.605 76.9652H253.506C253.304 76.0565 252.828 75.3352 252.078 74.8015C251.327 74.2678 250.354 74.001 249.157 74.001C248.046 74.001 247.072 74.2534 246.236 74.7583C245.413 75.2487 244.78 75.9555 244.332 76.8787C243.885 77.8018 243.661 78.9053 243.661 80.189C243.661 81.4728 243.885 82.5835 244.332 83.5211C244.78 84.4442 245.399 85.151 246.193 85.6415C247 86.1319 247.923 86.3771 248.963 86.3771C250.578 86.3771 251.797 85.9011 252.618 84.9491C253.441 83.9971 253.91 82.7061 254.025 81.0761H249.654V79.6481H255.886V87.7402H254.219L254.068 85.252C253.707 85.8434 253.29 86.3483 252.814 86.7666C252.352 87.1705 251.804 87.4806 251.169 87.6969C250.534 87.8989 249.777 87.9999 248.898 87.9999ZM271.149 87.9999C269.663 87.9999 268.38 87.6753 267.298 87.0262C266.231 86.3627 265.401 85.4467 264.809 84.2784C264.232 83.0956 263.944 81.7252 263.944 80.1674C263.944 78.6096 264.232 77.2465 264.809 76.0781C265.401 74.8953 266.231 73.9793 267.298 73.3302C268.38 72.6667 269.663 72.335 271.149 72.335C272.88 72.335 274.287 72.7461 275.369 73.5682C276.451 74.3904 277.142 75.5516 277.445 77.0517H275.433C275.202 76.1142 274.734 75.3641 274.027 74.8015C273.32 74.2246 272.361 73.9361 271.149 73.9361C270.067 73.9361 269.123 74.1885 268.315 74.6933C267.522 75.1838 266.901 75.8978 266.454 76.8354C266.021 77.7585 265.805 78.8692 265.805 80.1674C265.805 81.4656 266.021 82.5835 266.454 83.5211C266.901 84.4442 267.522 85.1583 268.315 85.6631C269.123 86.1535 270.067 86.3987 271.149 86.3987C272.361 86.3987 273.32 86.1247 274.027 85.5766C274.734 85.014 275.202 84.2712 275.433 83.348H277.445C277.142 84.8049 276.451 85.9444 275.369 86.7666C274.287 87.5888 272.88 87.9999 271.149 87.9999ZM286.874 87.9999C285.417 87.9999 284.133 87.6753 283.023 87.0262C281.912 86.3627 281.039 85.4467 280.404 84.2784C279.785 83.0956 279.474 81.7252 279.474 80.1674C279.474 78.624 279.785 77.2681 280.404 76.0997C281.039 74.9169 281.912 73.9938 283.023 73.3302C284.133 72.6667 285.417 72.335 286.874 72.335C288.36 72.335 289.658 72.6667 290.769 73.3302C291.879 73.9938 292.737 74.9169 293.344 76.0997C293.963 77.2681 294.274 78.624 294.274 80.1674C294.274 81.7252 293.963 83.0956 293.344 84.2784C292.737 85.4467 291.879 86.3627 290.769 87.0262C289.658 87.6753 288.36 87.9999 286.874 87.9999ZM286.874 86.3987C287.984 86.3987 288.951 86.1535 289.773 85.6631C290.61 85.1583 291.259 84.4442 291.72 83.5211C292.183 82.5835 292.413 81.4656 292.413 80.1674C292.413 78.8692 292.183 77.7585 291.72 76.8354C291.259 75.8978 290.61 75.1838 289.773 74.6933C288.951 74.2029 287.984 73.9577 286.874 73.9577C285.778 73.9577 284.811 74.2029 283.975 74.6933C283.152 75.1838 282.503 75.8978 282.028 76.8354C281.565 77.7585 281.335 78.8692 281.335 80.1674C281.335 81.4656 281.565 82.5835 282.028 83.5211C282.503 84.4442 283.152 85.1583 283.975 85.6631C284.811 86.1535 285.778 86.3987 286.874 86.3987ZM296.92 87.7402V72.5946H298.738L306.808 84.7327V72.5946H308.625V87.7402H306.808L298.738 75.6021V87.7402H296.92ZM316.705 87.9999C315.594 87.9999 314.628 87.7979 313.806 87.394C312.983 86.9902 312.348 86.4276 311.902 85.7064C311.455 84.9852 311.231 84.1485 311.231 83.1965H313.135C313.135 83.7879 313.272 84.3361 313.546 84.8409C313.82 85.3313 314.217 85.728 314.736 86.0309C315.27 86.3194 315.926 86.4637 316.705 86.4637C317.383 86.4637 317.96 86.3555 318.436 86.1391C318.927 85.9083 319.295 85.5982 319.539 85.2087C319.8 84.8193 319.928 84.3793 319.928 83.8889C319.928 83.2975 319.8 82.8215 319.539 82.4609C319.279 82.0859 318.927 81.7829 318.479 81.5522C318.046 81.3069 317.548 81.0978 316.987 80.9247C316.424 80.7516 315.833 80.5569 315.212 80.3405C314.03 79.9366 313.157 79.439 312.594 78.8476C312.032 78.2418 311.75 77.4556 311.75 76.4892C311.75 75.667 311.938 74.9458 312.313 74.3255C312.702 73.7053 313.251 73.2221 313.958 72.8759C314.679 72.5153 315.529 72.335 316.51 72.335C317.476 72.335 318.313 72.5153 319.02 72.8759C319.742 73.2365 320.304 73.7341 320.708 74.3688C321.112 74.9891 321.314 75.7103 321.314 76.5325H319.409C319.409 76.1142 319.302 75.7031 319.085 75.2992C318.869 74.8953 318.537 74.5635 318.09 74.3039C317.657 74.0298 317.109 73.8928 316.445 73.8928C315.898 73.8784 315.407 73.9721 314.974 74.1741C314.556 74.3616 314.224 74.6357 313.979 74.9963C313.748 75.3569 313.632 75.7968 313.632 76.3161C313.632 76.8065 313.734 77.2032 313.935 77.5061C314.152 77.809 314.455 78.0687 314.844 78.285C315.249 78.487 315.717 78.6745 316.25 78.8476C316.785 79.0207 317.376 79.2154 318.025 79.4318C318.76 79.677 319.409 79.9799 319.972 80.3405C320.549 80.6867 320.996 81.1338 321.314 81.682C321.645 82.2301 321.812 82.9297 321.812 83.7807C321.812 84.5019 321.617 85.1871 321.227 85.8362C320.852 86.4709 320.289 86.9902 319.539 87.394C318.79 87.7979 317.845 87.9999 316.705 87.9999ZM327.577 87.7402V74.0875H323.056V72.5946H333.917V74.0875H329.395V87.7402H327.577ZM336.157 87.7402V72.5946H341.047C342.229 72.5946 343.197 72.7965 343.946 73.2004C344.697 73.5899 345.251 74.1164 345.612 74.7799C345.973 75.4434 346.154 76.1935 346.154 77.0301C346.154 77.8379 345.966 78.5807 345.591 79.2587C345.23 79.9366 344.667 80.4775 343.904 80.8814C343.139 81.2853 342.157 81.4872 340.961 81.4872H337.974V87.7402H336.157ZM344.163 87.7402L340.831 80.968H342.864L346.305 87.7402H344.163ZM337.974 80.0592H340.917C342.071 80.0592 342.915 79.7779 343.448 79.2154C343.997 78.6528 344.271 77.9316 344.271 77.0517C344.271 76.1574 344.004 75.4506 343.471 74.9314C342.951 74.3976 342.094 74.1308 340.896 74.1308H337.974V80.0592ZM354.478 87.9999C353.439 87.9999 352.494 87.7907 351.644 87.3724C350.807 86.9541 350.137 86.3194 349.632 85.4684C349.127 84.6029 348.874 83.4994 348.874 82.158V72.5946H350.691V82.1796C350.691 83.1605 350.851 83.961 351.168 84.5813C351.5 85.2015 351.954 85.6559 352.531 85.9444C353.108 86.2329 353.771 86.3771 354.521 86.3771C355.286 86.3771 355.949 86.2329 356.512 85.9444C357.075 85.6559 357.515 85.2015 357.831 84.5813C358.15 83.961 358.308 83.1605 358.308 82.1796V72.5946H360.125V82.158C360.125 83.4994 359.873 84.6029 359.369 85.4684C358.864 86.3194 358.185 86.9541 357.334 87.3724C356.484 87.7907 355.531 87.9999 354.478 87.9999ZM369.824 87.9999C368.338 87.9999 367.055 87.6753 365.973 87.0262C364.905 86.3627 364.075 85.4467 363.484 84.2784C362.907 83.0956 362.619 81.7252 362.619 80.1674C362.619 78.6096 362.907 77.2465 363.484 76.0781C364.075 74.8953 364.905 73.9793 365.973 73.3302C367.055 72.6667 368.338 72.335 369.824 72.335C371.555 72.335 372.962 72.7461 374.044 73.5682C375.125 74.3904 375.817 75.5516 376.12 77.0517H374.107C373.877 76.1142 373.409 75.3641 372.702 74.8015C371.995 74.2246 371.036 73.9361 369.824 73.9361C368.742 73.9361 367.797 74.1885 366.99 74.6933C366.196 75.1838 365.576 75.8978 365.129 76.8354C364.696 77.7585 364.48 78.8692 364.48 80.1674C364.48 81.4656 364.696 82.5835 365.129 83.5211C365.576 84.4442 366.196 85.1583 366.99 85.6631C367.797 86.1535 368.742 86.3987 369.824 86.3987C371.036 86.3987 371.995 86.1247 372.702 85.5766C373.409 85.014 373.877 84.2712 374.107 83.348H376.12C375.817 84.8049 375.125 85.9444 374.044 86.7666C372.962 87.5888 371.555 87.9999 369.824 87.9999ZM381.923 87.7402V74.0875H377.4V72.5946H388.262V74.0875H383.74V87.7402H381.923ZM390.503 87.7402V72.5946H392.32V87.7402H390.503ZM402.367 87.9999C400.911 87.9999 399.627 87.6753 398.517 87.0262C397.406 86.3627 396.534 85.4467 395.899 84.2784C395.278 83.0956 394.968 81.7252 394.968 80.1674C394.968 78.624 395.278 77.2681 395.899 76.0997C396.534 74.9169 397.406 73.9938 398.517 73.3302C399.627 72.6667 400.911 72.335 402.367 72.335C403.854 72.335 405.152 72.6667 406.262 73.3302C407.373 73.9938 408.232 74.9169 408.837 76.0997C409.458 77.2681 409.768 78.624 409.768 80.1674C409.768 81.7252 409.458 83.0956 408.837 84.2784C408.232 85.4467 407.373 86.3627 406.262 87.0262C405.152 87.6753 403.854 87.9999 402.367 87.9999ZM402.367 86.3987C403.479 86.3987 404.445 86.1535 405.268 85.6631C406.104 85.1583 406.753 84.4442 407.215 83.5211C407.676 82.5835 407.907 81.4656 407.907 80.1674C407.907 78.8692 407.676 77.7585 407.215 76.8354C406.753 75.8978 406.104 75.1838 405.268 74.6933C404.445 74.2029 403.479 73.9577 402.367 73.9577C401.271 73.9577 400.305 74.2029 399.468 74.6933C398.647 75.1838 397.998 75.8978 397.521 76.8354C397.06 77.7585 396.829 78.8692 396.829 80.1674C396.829 81.4656 397.06 82.5835 397.521 83.5211C397.998 84.4442 398.647 85.1583 399.468 85.6631C400.305 86.1535 401.271 86.3987 402.367 86.3987ZM412.414 87.7402V72.5946H414.231L422.301 84.7327V72.5946H424.119V87.7402H422.301L414.231 75.6021V87.7402H412.414Z" fill="#8E9DA4"/>
<rect x="2" y="2" width="96" height="96" rx="6" stroke="#008F7A" stroke-width="4"/>
<rect x="31.0066" y="8.26091" width="64.5" height="64.5" rx="14.25" transform="rotate(21 31.0066 8.26091)" stroke="#41906F" stroke-width="3.5"/>
<rect x="50" y="24.1213" width="37" height="37" rx="10.5" transform="rotate(45 50 24.1213)" stroke="#879262" stroke-width="3"/>
<rect x="41" y="41" width="18" height="18" rx="7" stroke="#B8935A" stroke-width="2"/>
<defs>
<linearGradient id="paint0_linear_10433_25" x1="115.581" y1="36.0722" x2="464.368" y2="36.0722" gradientUnits="userSpaceOnUse">
<stop stop-color="#008F7A"/>
<stop offset="0.355769" stop-color="#41906F"/>
<stop offset="0.735577" stop-color="#879262"/>
<stop offset="1" stop-color="#B8935A"/>
</linearGradient>
</defs>
</svg>
