<svg width="458" height="100" viewBox="0 0 458 100" fill="none" xmlns="http://www.w3.org/2000/svg">
<path d="M138.678 59.0834V9.7094H149.815V59.0834H138.678ZM123 18.7187V9H165.493V18.7187H123ZM161.786 59.0834L181.649 9H191.723L211.373 59.0834H199.597L184.558 17.5128H188.602L173.349 59.0834H161.786ZM173.066 50.0031V40.9229H200.378V50.0031H173.066ZM223.335 59.0834V9.7094H234.472V59.0834H223.335ZM207.657 18.7187V9H250.15V18.7187H207.657ZM246.443 59.0834L266.306 9H276.38L296.03 59.0834H284.254L269.215 17.5128H273.259L258.006 59.0834H246.443ZM257.723 50.0031V40.9229H285.035V50.0031H257.723ZM308.826 59.0834L292.723 9H303.79L315.566 47.5203H311.238L322.731 9H331.456L342.948 47.5203H338.692L350.397 9H361.393L345.289 59.0834H336.564L325.001 20.5632H329.115L317.552 59.0834H308.826ZM387.567 59.8638C383.453 59.8638 379.811 58.9888 376.642 57.239C373.521 55.4891 371.062 53.0772 369.265 50.0031C367.515 46.8818 366.64 43.3348 366.64 39.3622V9H377.848V40.0006C377.848 41.987 378.274 43.7132 379.125 45.1792C379.977 46.6453 381.135 47.7804 382.601 48.5843C384.115 49.341 385.77 49.7194 387.567 49.7194C389.459 49.7194 391.114 49.341 392.533 48.5843C393.952 47.7804 395.063 46.669 395.867 45.2502C396.718 43.7841 397.144 42.0579 397.144 40.0716V9H408.353V39.4331C408.353 43.4057 407.478 46.9291 405.728 50.0031C403.978 53.0772 401.542 55.4891 398.421 57.239C395.3 58.9888 391.682 59.8638 387.567 59.8638ZM425.743 38.44V30.211H436.313C438.536 30.211 440.239 29.6434 441.421 28.5084C442.651 27.3734 443.265 25.8364 443.265 23.8973C443.265 22.1002 442.674 20.6105 441.492 19.4281C440.31 18.2458 438.607 17.6546 436.384 17.6546H425.743V9H437.661C440.972 9 443.88 9.63846 446.387 10.9154C448.893 12.145 450.856 13.8712 452.275 16.094C453.694 18.3167 454.403 20.8706 454.403 23.7555C454.403 26.6876 453.694 29.2651 452.275 31.4879C450.856 33.6634 448.87 35.3659 446.316 36.5955C443.762 37.8252 440.759 38.44 437.306 38.44H425.743ZM417.231 59.0834V9H428.368V59.0834H417.231ZM444.471 59.0834L428.865 37.5178L439.08 34.7511L457.666 59.0834H444.471Z" fill="url(#paint0_linear_10554_52810)"/>
<path d="M151.994 85V73.72H159.114V74.824H153.274V78.728H158.778V79.832H153.274V83.896H159.114V85H151.994ZM164.732 85L159.804 73.72H161.212L165.612 83.944H165.1L169.484 73.72H170.86L165.916 85H164.732ZM176.73 85.144C175.951 85.144 175.242 85.0107 174.602 84.744C173.962 84.4667 173.418 84.0773 172.97 83.576C172.522 83.0747 172.175 82.4667 171.93 81.752C171.695 81.0373 171.578 80.2373 171.578 79.352C171.578 78.456 171.695 77.656 171.93 76.952C172.175 76.2373 172.522 75.6347 172.97 75.144C173.418 74.6427 173.956 74.2587 174.586 73.992C175.226 73.7147 175.94 73.576 176.73 73.576C177.53 73.576 178.244 73.7093 178.874 73.976C179.514 74.2427 180.058 74.6267 180.506 75.128C180.964 75.6293 181.311 76.2373 181.546 76.952C181.791 77.656 181.914 78.4507 181.914 79.336C181.914 80.232 181.791 81.0373 181.546 81.752C181.3 82.4667 180.954 83.0747 180.506 83.576C180.058 84.0773 179.514 84.4667 178.874 84.744C178.244 85.0107 177.53 85.144 176.73 85.144ZM176.73 83.976C177.54 83.976 178.223 83.7947 178.778 83.432C179.343 83.0693 179.775 82.5413 180.074 81.848C180.372 81.1547 180.522 80.3227 180.522 79.352C180.522 78.3707 180.372 77.5387 180.074 76.856C179.775 76.1733 179.343 75.6507 178.778 75.288C178.223 74.9253 177.54 74.744 176.73 74.744C175.94 74.744 175.263 74.9253 174.698 75.288C174.143 75.6507 173.716 76.1787 173.418 76.872C173.119 77.5547 172.97 78.3813 172.97 79.352C172.97 80.3227 173.119 81.1547 173.418 81.848C173.716 82.5307 174.143 83.0587 174.698 83.432C175.263 83.7947 175.94 83.976 176.73 83.976ZM184.259 85V73.72H185.571V83.848H191.315V85H184.259ZM194.935 85L190.007 73.72H191.415L195.815 83.944H195.303L199.687 73.72H201.063L196.119 85H194.935ZM202.447 85V73.72H203.759V85H202.447ZM206.54 85V73.72H207.564L214.748 83.304H214.364V73.72H215.58V85H214.588L207.404 75.416H207.772V85H206.54ZM223.536 85.144C222.331 85.144 221.312 84.9147 220.48 84.456C219.659 83.9973 219.035 83.336 218.608 82.472C218.182 81.608 217.968 80.5733 217.968 79.368C217.968 78.1733 218.182 77.144 218.608 76.28C219.035 75.416 219.648 74.7493 220.448 74.28C221.248 73.8107 222.214 73.576 223.344 73.576C223.878 73.576 224.379 73.6293 224.848 73.736C225.328 73.8427 225.771 74.0027 226.176 74.216C226.592 74.4187 226.955 74.6747 227.264 74.984L226.752 76.04C226.24 75.592 225.712 75.2667 225.168 75.064C224.624 74.8613 224.011 74.76 223.328 74.76C222.038 74.76 221.051 75.16 220.368 75.96C219.696 76.76 219.36 77.896 219.36 79.368C219.36 80.8613 219.707 82.0027 220.4 82.792C221.104 83.5813 222.16 83.976 223.568 83.976C224.08 83.976 224.582 83.928 225.072 83.832C225.563 83.7253 226.027 83.5813 226.464 83.4L226.176 84.152V80.168H223.312V79.128H227.312V84.344C227.024 84.4933 226.667 84.632 226.24 84.76C225.814 84.8773 225.366 84.968 224.896 85.032C224.427 85.1067 223.974 85.144 223.536 85.144ZM236.871 85V74.856H232.775V73.72H242.295V74.856H238.199V85H236.871ZM243.728 85V73.72H245.04V78.712H251.808V73.72H253.12V85H251.808V79.848H245.04V85H243.728ZM255.9 85V73.72H263.02V74.824H257.18V78.728H262.684V79.832H257.18V83.896H263.02V85H255.9ZM269.337 85V73.72H273.849C275.001 73.72 275.897 73.976 276.537 74.488C277.177 75 277.497 75.7253 277.497 76.664C277.497 77.368 277.289 77.9547 276.873 78.424C276.468 78.8933 275.913 79.2027 275.209 79.352V79.128C275.743 79.192 276.201 79.3467 276.585 79.592C276.969 79.8267 277.263 80.1413 277.465 80.536C277.668 80.92 277.769 81.3733 277.769 81.896C277.769 82.568 277.62 83.1387 277.321 83.608C277.033 84.0667 276.612 84.4133 276.057 84.648C275.503 84.8827 274.831 85 274.041 85H269.337ZM270.617 83.944H273.913C274.255 83.944 274.559 83.9173 274.825 83.864C275.103 83.8107 275.343 83.7307 275.545 83.624C275.748 83.5067 275.919 83.368 276.057 83.208C276.196 83.048 276.297 82.856 276.361 82.632C276.436 82.408 276.473 82.1573 276.473 81.88C276.473 81.592 276.436 81.3413 276.361 81.128C276.297 80.904 276.196 80.712 276.057 80.552C275.919 80.3813 275.748 80.2427 275.545 80.136C275.343 80.0293 275.103 79.9493 274.825 79.896C274.559 79.8427 274.255 79.816 273.913 79.816H270.617V83.944ZM270.617 78.76H273.657C274.489 78.76 275.119 78.5893 275.545 78.248C275.983 77.9067 276.201 77.416 276.201 76.776C276.201 76.1147 275.983 75.6187 275.545 75.288C275.119 74.9467 274.489 74.776 273.657 74.776H270.617V78.76ZM284.598 85.144C283.126 85.144 282 84.7547 281.222 83.976C280.454 83.1867 280.07 82.04 280.07 80.536V73.72H281.382V80.472C281.382 81.6453 281.654 82.5253 282.198 83.112C282.742 83.688 283.542 83.976 284.598 83.976C285.654 83.976 286.448 83.688 286.982 83.112C287.515 82.5253 287.782 81.6453 287.782 80.472V73.72H289.094V80.536C289.094 82.04 288.71 83.1867 287.942 83.976C287.184 84.7547 286.07 85.144 284.598 85.144ZM291.79 85V73.72H293.102V85H291.79ZM295.884 85V73.72H297.196V83.848H302.94V85H295.884ZM305.308 85V74.856H301.212V73.72H310.732V74.856H306.636V85H305.308ZM316.275 85V73.72H323.395V74.824H317.555V78.728H323.059V79.832H317.555V83.896H323.395V85H316.275ZM325.603 85V73.72H326.627L333.811 83.304H333.427V73.72H334.643V85H333.651L326.467 75.416H326.835V85H325.603ZM340.967 85L336.039 73.72H337.447L341.847 83.944H341.335L345.719 73.72H347.095L342.151 85H340.967ZM348.478 85V73.72H349.79V85H348.478ZM352.572 85V73.72H357.036C358.241 73.72 359.169 74.0027 359.82 74.568C360.47 75.1333 360.796 75.9387 360.796 76.984C360.796 77.6453 360.646 78.2213 360.348 78.712C360.06 79.192 359.633 79.56 359.068 79.816C358.502 80.0613 357.825 80.184 357.036 80.184L357.196 79.976H357.516C357.932 79.976 358.294 80.0827 358.604 80.296C358.913 80.5093 359.196 80.8507 359.452 81.32L361.436 85H359.996L358.044 81.384C357.884 81.0853 357.702 80.8507 357.5 80.68C357.308 80.5093 357.084 80.392 356.828 80.328C356.582 80.264 356.284 80.232 355.932 80.232H353.884V85H352.572ZM353.884 79.192H356.844C357.718 79.192 358.38 79.0107 358.828 78.648C359.276 78.2747 359.5 77.72 359.5 76.984C359.5 76.2693 359.276 75.7307 358.828 75.368C358.38 74.9947 357.718 74.808 356.844 74.808H353.884V79.192ZM367.933 85.144C367.154 85.144 366.445 85.0107 365.805 84.744C365.165 84.4667 364.621 84.0773 364.173 83.576C363.725 83.0747 363.378 82.4667 363.133 81.752C362.898 81.0373 362.781 80.2373 362.781 79.352C362.781 78.456 362.898 77.656 363.133 76.952C363.378 76.2373 363.725 75.6347 364.173 75.144C364.621 74.6427 365.159 74.2587 365.789 73.992C366.429 73.7147 367.143 73.576 367.933 73.576C368.733 73.576 369.447 73.7093 370.077 73.976C370.717 74.2427 371.261 74.6267 371.709 75.128C372.167 75.6293 372.514 76.2373 372.749 76.952C372.994 77.656 373.117 78.4507 373.117 79.336C373.117 80.232 372.994 81.0373 372.749 81.752C372.503 82.4667 372.157 83.0747 371.709 83.576C371.261 84.0773 370.717 84.4667 370.077 84.744C369.447 85.0107 368.733 85.144 367.933 85.144ZM367.933 83.976C368.743 83.976 369.426 83.7947 369.981 83.432C370.546 83.0693 370.978 82.5413 371.277 81.848C371.575 81.1547 371.725 80.3227 371.725 79.352C371.725 78.3707 371.575 77.5387 371.277 76.856C370.978 76.1733 370.546 75.6507 369.981 75.288C369.426 74.9253 368.743 74.744 367.933 74.744C367.143 74.744 366.466 74.9253 365.901 75.288C365.346 75.6507 364.919 76.1787 364.621 76.872C364.322 77.5547 364.173 78.3813 364.173 79.352C364.173 80.3227 364.322 81.1547 364.621 81.848C364.919 82.5307 365.346 83.0587 365.901 83.432C366.466 83.7947 367.143 83.976 367.933 83.976ZM375.462 85V73.72H376.486L383.67 83.304H383.286V73.72H384.502V85H383.51L376.326 75.416H376.694V85H375.462ZM387.338 85V73.72H388.442L393.018 82.312H392.538L397.082 73.72H398.186V85H396.97V75.48H397.354L393.21 83.256H392.346L388.154 75.464H388.538V85H387.338ZM400.994 85V73.72H408.114V74.824H402.274V78.728H407.778V79.832H402.274V83.896H408.114V85H400.994ZM410.322 85V73.72H411.346L418.53 83.304H418.146V73.72H419.362V85H418.37L411.186 75.416H411.554V85H410.322ZM424.933 85V74.856H420.837V73.72H430.357V74.856H426.261V85H424.933Z" fill="#8E9DA4"/>
<g clip-path="url(#clip0_10554_52810)">
<path d="M92 2H8C4.68629 2 2 4.68629 2 8V92C2 95.3137 4.68629 98 8 98H92C95.3137 98 98 95.3137 98 92V8C98 4.68629 95.3137 2 92 2Z" stroke="#008F7A" stroke-width="4"/>
<path d="M77.9202 26.2697L44.3113 13.3685C36.964 10.5481 28.7214 14.2179 25.9011 21.5652L12.9998 55.1741C10.1794 62.5215 13.8493 70.764 21.1966 73.5844L54.8055 86.4856C62.1528 89.306 70.3954 85.6362 73.2158 78.2889L86.117 44.68C88.9374 37.3326 85.2676 29.0901 77.9202 26.2697Z" stroke="#41906F" stroke-width="3.5"/>
<path d="M68.7383 42.8594L57.4246 31.5457C53.3241 27.4452 46.6759 27.4452 42.5754 31.5457L31.2617 42.8594C27.1612 46.9599 27.1612 53.6082 31.2617 57.7087L42.5754 69.0224C46.6759 73.1229 53.3241 73.1229 57.4246 69.0224L68.7383 57.7087C72.8388 53.6082 72.8388 46.9599 68.7383 42.8594Z" stroke="#879262" stroke-width="3"/>
<path d="M52 41H48C44.134 41 41 44.134 41 48V52C41 55.866 44.134 59 48 59H52C55.866 59 59 55.866 59 52V48C59 44.134 55.866 41 52 41Z" stroke="#B8935A" stroke-width="2"/>
</g>
<defs>
<linearGradient id="paint0_linear_10554_52810" x1="121.581" y1="33.0722" x2="470.368" y2="33.0722" gradientUnits="userSpaceOnUse">
<stop stop-color="#008F7A"/>
<stop offset="0.355769" stop-color="#41906F"/>
<stop offset="0.735577" stop-color="#879262"/>
<stop offset="1" stop-color="#B8935A"/>
</linearGradient>
<clipPath id="clip0_10554_52810">
<rect width="100" height="100" fill="white"/>
</clipPath>
</defs>
</svg>
