<svg width="335" height="76" viewBox="0 0 335 76" fill="none" xmlns="http://www.w3.org/2000/svg">
<path d="M15.6777 50.0834V0.709397H26.8152V50.0834H15.6777ZM0 9.71874V0H42.4929V9.71874H0ZM38.7863 50.0834L58.6494 0H68.7228L88.3731 50.0834H76.5971L61.5579 8.51276H65.6015L50.3494 50.0834H38.7863ZM50.0657 41.0031V31.9229H77.3775V41.0031H50.0657ZM100.335 50.0834V0.709397H111.472V50.0834H100.335ZM84.6571 9.71874V0H127.15V9.71874H84.6571ZM123.443 50.0834L143.306 0H153.38L173.03 50.0834H161.254L146.215 8.51276H150.259L135.006 50.0834H123.443ZM134.723 41.0031V31.9229H162.035V41.0031H134.723ZM185.826 50.0834L169.723 0H180.79L192.566 38.5203H188.238L199.731 0H208.456L219.948 38.5203H215.692L227.397 0H238.393L222.289 50.0834H213.564L202.001 11.5632H206.115L194.552 50.0834H185.826ZM264.567 50.8638C260.453 50.8638 256.811 49.9888 253.642 48.239C250.521 46.4891 248.062 44.0772 246.265 41.0031C244.515 37.8818 243.64 34.3348 243.64 30.3622V0H254.848V31.0006C254.848 32.987 255.274 34.7132 256.125 36.1792C256.977 37.6453 258.135 38.7804 259.601 39.5843C261.115 40.341 262.77 40.7194 264.567 40.7194C266.459 40.7194 268.114 40.341 269.533 39.5843C270.952 38.7804 272.063 37.669 272.867 36.2502C273.718 34.7841 274.144 33.0579 274.144 31.0716V0H285.353V30.4331C285.353 34.4057 284.478 37.9291 282.728 41.0031C280.978 44.0772 278.542 46.4891 275.421 48.239C272.3 49.9888 268.682 50.8638 264.567 50.8638ZM302.743 29.44V21.211H313.313C315.536 21.211 317.239 20.6434 318.421 19.5084C319.651 18.3734 320.265 16.8364 320.265 14.8973C320.265 13.1002 319.674 11.6105 318.492 10.4281C317.31 9.24581 315.607 8.65464 313.384 8.65464H302.743V0H314.661C317.972 0 320.88 0.638458 323.387 1.91537C325.893 3.14499 327.856 4.87119 329.275 7.09397C330.694 9.31675 331.403 11.8706 331.403 14.7555C331.403 17.6876 330.694 20.2651 329.275 22.4879C327.856 24.6634 325.87 26.3659 323.316 27.5955C320.762 28.8252 317.759 29.44 314.306 29.44H302.743ZM294.231 50.0834V0H305.368V50.0834H294.231ZM321.471 50.0834L305.865 28.5178L316.08 25.7511L334.666 50.0834H321.471Z" fill="url(#paint0_linear_10433_23)"/>
<path d="M39.1973 75.7402V60.5946H48.566V62.0875H41.0145V67.3669H47.9169V68.8381H41.0145V74.2473H48.566V75.7402H39.1973ZM55.997 75.7402L50.3064 60.5946H52.275L57.0575 73.8146L61.8814 60.5946H63.8074L58.1169 75.7402H55.997ZM72.1085 75.9999C70.6507 75.9999 69.3679 75.6753 68.2565 75.0262C67.1463 74.3627 66.2738 73.4467 65.6388 72.2784C65.0181 71.0956 64.7084 69.7252 64.7084 68.1674C64.7084 66.624 65.0181 65.2681 65.6388 64.0997C66.2738 62.9169 67.1463 61.9938 68.2565 61.3302C69.3679 60.6667 70.6507 60.335 72.1085 60.335C73.5935 60.335 74.8917 60.6667 76.0031 61.3302C77.1133 61.9938 77.9717 62.9169 78.5771 64.0997C79.1978 65.2681 79.5075 66.624 79.5075 68.1674C79.5075 69.7252 79.1978 71.0956 78.5771 72.2784C77.9717 73.4467 77.1133 74.3627 76.0031 75.0262C74.8917 75.6753 73.5935 75.9999 72.1085 75.9999ZM72.1085 74.3987C73.2188 74.3987 74.1847 74.1535 75.0076 73.6631C75.8435 73.1583 76.4926 72.4442 76.9549 71.5211C77.416 70.5835 77.6466 69.4656 77.6466 68.1674C77.6466 66.8692 77.416 65.7585 76.9549 64.8354C76.4926 63.8978 75.8435 63.1838 75.0076 62.6933C74.1847 62.2029 73.2188 61.9577 72.1085 61.9577C71.0113 61.9577 70.0454 62.2029 69.2083 62.6933C68.3866 63.1838 67.7375 63.8978 67.261 64.8354C66.7999 65.7585 66.5693 66.8692 66.5693 68.1674C66.5693 69.4656 66.7999 70.5835 67.261 71.5211C67.7375 72.4442 68.3866 73.1583 69.2083 73.6631C70.0454 74.1535 71.0113 74.3987 72.1085 74.3987ZM82.1536 75.7402V60.5946H83.9708V74.2906H91.0246V75.7402H82.1536ZM95.5092 75.7402L89.8186 60.5946H91.7872L96.5697 73.8146L101.394 60.5946H103.32L97.6291 75.7402H95.5092ZM105.396 75.7402V60.5946H107.214V75.7402H105.396ZM110.447 75.7402V60.5946H112.264L120.335 72.7327V60.5946H122.152V75.7402H120.335L112.264 63.6021V75.7402H110.447ZM131.898 75.9999C130.484 75.9999 129.243 75.6753 128.176 75.0262C127.108 74.3627 126.279 73.4467 125.688 72.2784C125.096 71.11 124.8 69.7469 124.8 68.189C124.8 66.6456 125.096 65.2825 125.688 64.0997C126.293 62.9169 127.145 61.9938 128.241 61.3302C129.351 60.6667 130.656 60.335 132.157 60.335C133.859 60.335 135.28 60.7461 136.419 61.5682C137.559 62.376 138.287 63.5083 138.605 64.9652H136.506C136.304 64.0565 135.828 63.3352 135.078 62.8015C134.327 62.2678 133.354 62.001 132.157 62.001C131.046 62.001 130.072 62.2534 129.236 62.7583C128.413 63.2487 127.78 63.9555 127.332 64.8787C126.885 65.8018 126.661 66.9053 126.661 68.189C126.661 69.4728 126.885 70.5835 127.332 71.5211C127.78 72.4442 128.399 73.151 129.193 73.6415C130 74.1319 130.923 74.3771 131.963 74.3771C133.578 74.3771 134.797 73.9011 135.618 72.9491C136.441 71.9971 136.91 70.7061 137.025 69.0761H132.654V67.6481H138.886V75.7402H137.219L137.068 73.252C136.707 73.8434 136.29 74.3483 135.814 74.7666C135.352 75.1705 134.804 75.4806 134.169 75.6969C133.534 75.8989 132.777 75.9999 131.898 75.9999ZM154.149 75.9999C152.663 75.9999 151.38 75.6753 150.298 75.0262C149.231 74.3627 148.401 73.4467 147.809 72.2784C147.232 71.0956 146.944 69.7252 146.944 68.1674C146.944 66.6096 147.232 65.2465 147.809 64.0781C148.401 62.8953 149.231 61.9793 150.298 61.3302C151.38 60.6667 152.663 60.335 154.149 60.335C155.88 60.335 157.287 60.7461 158.369 61.5682C159.451 62.3904 160.142 63.5516 160.445 65.0517H158.433C158.202 64.1142 157.734 63.3641 157.027 62.8015C156.32 62.2246 155.361 61.9361 154.149 61.9361C153.067 61.9361 152.123 62.1885 151.315 62.6933C150.522 63.1838 149.901 63.8978 149.454 64.8354C149.021 65.7585 148.805 66.8692 148.805 68.1674C148.805 69.4656 149.021 70.5835 149.454 71.5211C149.901 72.4442 150.522 73.1583 151.315 73.6631C152.123 74.1535 153.067 74.3987 154.149 74.3987C155.361 74.3987 156.32 74.1247 157.027 73.5766C157.734 73.014 158.202 72.2712 158.433 71.348H160.445C160.142 72.8049 159.451 73.9444 158.369 74.7666C157.287 75.5888 155.88 75.9999 154.149 75.9999ZM169.874 75.9999C168.417 75.9999 167.133 75.6753 166.023 75.0262C164.912 74.3627 164.039 73.4467 163.404 72.2784C162.785 71.0956 162.474 69.7252 162.474 68.1674C162.474 66.624 162.785 65.2681 163.404 64.0997C164.039 62.9169 164.912 61.9938 166.023 61.3302C167.133 60.6667 168.417 60.335 169.874 60.335C171.36 60.335 172.658 60.6667 173.769 61.3302C174.879 61.9938 175.737 62.9169 176.344 64.0997C176.963 65.2681 177.274 66.624 177.274 68.1674C177.274 69.7252 176.963 71.0956 176.344 72.2784C175.737 73.4467 174.879 74.3627 173.769 75.0262C172.658 75.6753 171.36 75.9999 169.874 75.9999ZM169.874 74.3987C170.984 74.3987 171.951 74.1535 172.773 73.6631C173.61 73.1583 174.259 72.4442 174.72 71.5211C175.183 70.5835 175.413 69.4656 175.413 68.1674C175.413 66.8692 175.183 65.7585 174.72 64.8354C174.259 63.8978 173.61 63.1838 172.773 62.6933C171.951 62.2029 170.984 61.9577 169.874 61.9577C168.778 61.9577 167.811 62.2029 166.975 62.6933C166.152 63.1838 165.503 63.8978 165.028 64.8354C164.565 65.7585 164.335 66.8692 164.335 68.1674C164.335 69.4656 164.565 70.5835 165.028 71.5211C165.503 72.4442 166.152 73.1583 166.975 73.6631C167.811 74.1535 168.778 74.3987 169.874 74.3987ZM179.92 75.7402V60.5946H181.738L189.808 72.7327V60.5946H191.625V75.7402H189.808L181.738 63.6021V75.7402H179.92ZM199.705 75.9999C198.594 75.9999 197.628 75.7979 196.806 75.394C195.983 74.9902 195.348 74.4276 194.902 73.7064C194.455 72.9852 194.231 72.1485 194.231 71.1965H196.135C196.135 71.7879 196.272 72.3361 196.546 72.8409C196.82 73.3313 197.217 73.728 197.736 74.0309C198.27 74.3194 198.926 74.4637 199.705 74.4637C200.383 74.4637 200.96 74.3555 201.436 74.1391C201.927 73.9083 202.295 73.5982 202.539 73.2087C202.8 72.8193 202.928 72.3793 202.928 71.8889C202.928 71.2975 202.8 70.8215 202.539 70.4609C202.279 70.0859 201.927 69.7829 201.479 69.5522C201.046 69.3069 200.548 69.0978 199.987 68.9247C199.424 68.7516 198.833 68.5569 198.212 68.3405C197.03 67.9366 196.157 67.439 195.594 66.8476C195.032 66.2418 194.75 65.4556 194.75 64.4892C194.75 63.667 194.938 62.9458 195.313 62.3255C195.702 61.7053 196.251 61.2221 196.958 60.8759C197.679 60.5153 198.529 60.335 199.51 60.335C200.476 60.335 201.313 60.5153 202.02 60.8759C202.742 61.2365 203.304 61.7341 203.708 62.3688C204.112 62.9891 204.314 63.7103 204.314 64.5325H202.409C202.409 64.1142 202.302 63.7031 202.085 63.2992C201.869 62.8953 201.537 62.5635 201.09 62.3039C200.657 62.0298 200.109 61.8928 199.445 61.8928C198.898 61.8784 198.407 61.9721 197.974 62.1741C197.556 62.3616 197.224 62.6357 196.979 62.9963C196.748 63.3569 196.632 63.7968 196.632 64.3161C196.632 64.8065 196.734 65.2032 196.935 65.5061C197.152 65.809 197.455 66.0687 197.844 66.285C198.249 66.487 198.717 66.6745 199.25 66.8476C199.785 67.0207 200.376 67.2154 201.025 67.4318C201.76 67.677 202.409 67.9799 202.972 68.3405C203.549 68.6867 203.996 69.1338 204.314 69.682C204.645 70.2301 204.812 70.9297 204.812 71.7807C204.812 72.5019 204.617 73.1871 204.227 73.8362C203.852 74.4709 203.289 74.9902 202.539 75.394C201.79 75.7979 200.845 75.9999 199.705 75.9999ZM210.577 75.7402V62.0875H206.056V60.5946H216.917V62.0875H212.395V75.7402H210.577ZM219.157 75.7402V60.5946H224.047C225.229 60.5946 226.197 60.7965 226.946 61.2004C227.697 61.5899 228.251 62.1164 228.612 62.7799C228.973 63.4434 229.154 64.1935 229.154 65.0301C229.154 65.8379 228.966 66.5807 228.591 67.2587C228.23 67.9366 227.667 68.4775 226.904 68.8814C226.139 69.2853 225.157 69.4872 223.961 69.4872H220.974V75.7402H219.157ZM227.163 75.7402L223.831 68.968H225.864L229.305 75.7402H227.163ZM220.974 68.0592H223.917C225.071 68.0592 225.915 67.7779 226.448 67.2154C226.997 66.6528 227.271 65.9316 227.271 65.0517C227.271 64.1574 227.004 63.4506 226.471 62.9314C225.951 62.3976 225.094 62.1308 223.896 62.1308H220.974V68.0592ZM237.478 75.9999C236.439 75.9999 235.494 75.7907 234.644 75.3724C233.807 74.9541 233.137 74.3194 232.632 73.4684C232.127 72.6029 231.874 71.4994 231.874 70.158V60.5946H233.691V70.1796C233.691 71.1605 233.851 71.961 234.168 72.5813C234.5 73.2015 234.954 73.6559 235.531 73.9444C236.108 74.2329 236.771 74.3771 237.521 74.3771C238.286 74.3771 238.949 74.2329 239.512 73.9444C240.075 73.6559 240.515 73.2015 240.831 72.5813C241.15 71.961 241.308 71.1605 241.308 70.1796V60.5946H243.125V70.158C243.125 71.4994 242.873 72.6029 242.369 73.4684C241.864 74.3194 241.185 74.9541 240.334 75.3724C239.484 75.7907 238.531 75.9999 237.478 75.9999ZM252.824 75.9999C251.338 75.9999 250.055 75.6753 248.973 75.0262C247.905 74.3627 247.075 73.4467 246.484 72.2784C245.907 71.0956 245.619 69.7252 245.619 68.1674C245.619 66.6096 245.907 65.2465 246.484 64.0781C247.075 62.8953 247.905 61.9793 248.973 61.3302C250.055 60.6667 251.338 60.335 252.824 60.335C254.555 60.335 255.962 60.7461 257.044 61.5682C258.125 62.3904 258.817 63.5516 259.12 65.0517H257.107C256.877 64.1142 256.409 63.3641 255.702 62.8015C254.995 62.2246 254.036 61.9361 252.824 61.9361C251.742 61.9361 250.797 62.1885 249.99 62.6933C249.196 63.1838 248.576 63.8978 248.129 64.8354C247.696 65.7585 247.48 66.8692 247.48 68.1674C247.48 69.4656 247.696 70.5835 248.129 71.5211C248.576 72.4442 249.196 73.1583 249.99 73.6631C250.797 74.1535 251.742 74.3987 252.824 74.3987C254.036 74.3987 254.995 74.1247 255.702 73.5766C256.409 73.014 256.877 72.2712 257.107 71.348H259.12C258.817 72.8049 258.125 73.9444 257.044 74.7666C255.962 75.5888 254.555 75.9999 252.824 75.9999ZM264.923 75.7402V62.0875H260.4V60.5946H271.262V62.0875H266.74V75.7402H264.923ZM273.503 75.7402V60.5946H275.32V75.7402H273.503ZM285.367 75.9999C283.911 75.9999 282.627 75.6753 281.517 75.0262C280.406 74.3627 279.534 73.4467 278.899 72.2784C278.278 71.0956 277.968 69.7252 277.968 68.1674C277.968 66.624 278.278 65.2681 278.899 64.0997C279.534 62.9169 280.406 61.9938 281.517 61.3302C282.627 60.6667 283.911 60.335 285.367 60.335C286.854 60.335 288.152 60.6667 289.262 61.3302C290.373 61.9938 291.232 62.9169 291.837 64.0997C292.458 65.2681 292.768 66.624 292.768 68.1674C292.768 69.7252 292.458 71.0956 291.837 72.2784C291.232 73.4467 290.373 74.3627 289.262 75.0262C288.152 75.6753 286.854 75.9999 285.367 75.9999ZM285.367 74.3987C286.479 74.3987 287.445 74.1535 288.268 73.6631C289.104 73.1583 289.753 72.4442 290.215 71.5211C290.676 70.5835 290.907 69.4656 290.907 68.1674C290.907 66.8692 290.676 65.7585 290.215 64.8354C289.753 63.8978 289.104 63.1838 288.268 62.6933C287.445 62.2029 286.479 61.9577 285.367 61.9577C284.271 61.9577 283.305 62.2029 282.468 62.6933C281.647 63.1838 280.998 63.8978 280.521 64.8354C280.06 65.7585 279.829 66.8692 279.829 68.1674C279.829 69.4656 280.06 70.5835 280.521 71.5211C280.998 72.4442 281.647 73.1583 282.468 73.6631C283.305 74.1535 284.271 74.3987 285.367 74.3987ZM295.414 75.7402V60.5946H297.231L305.301 72.7327V60.5946H307.119V75.7402H305.301L297.231 63.6021V75.7402H295.414Z" fill="#8E9DA4"/>
<defs>
<linearGradient id="paint0_linear_10433_23" x1="-1.41879" y1="24.0722" x2="347.368" y2="24.0722" gradientUnits="userSpaceOnUse">
<stop stop-color="#008F7A"/>
<stop offset="0.355769" stop-color="#41906F"/>
<stop offset="0.735577" stop-color="#879262"/>
<stop offset="1" stop-color="#B8935A"/>
</linearGradient>
</defs>
</svg>
